<svg width="121" height="66" viewBox="0 0 121 66" fill="none" xmlns="http://www.w3.org/2000/svg">
<path d="M9.68514 50.2969L0.621948 65.9157H38.3595C38.4834 65.6741 38.5918 65.4248 38.6841 65.1693C38.789 64.9245 38.7074 64.7729 38.4976 64.6447C37.6933 64.1435 37.3552 63.3508 37.5884 62.4299C37.6433 62.2221 37.6551 62.0053 37.623 61.7928C37.5909 61.5803 37.5157 61.3766 37.4019 61.1943C37.3623 61.1268 37.3272 61.0567 37.2969 60.9845C37.1571 60.4483 36.7957 60.2384 36.2712 60.1802L36.1319 60.1675C34.8844 60.0544 33.6382 59.9413 32.4244 60.4133C31.9931 60.5881 31.6084 60.5066 31.2471 60.2268C31.1482 60.1502 31.0248 60.0536 30.8868 59.9455C30.5206 59.6585 30.0512 59.2907 29.6617 59.0028C29.1928 58.6562 29.1607 58.4255 29.1133 58.0846C29.1065 58.0357 29.0993 57.9845 29.0906 57.9304C28.8458 56.5549 29.1721 55.3193 29.8832 54.1536C30.2713 53.4881 30.6254 52.8034 30.944 52.102C31.1449 51.6801 31.4757 51.3447 31.8021 51.0138C31.8544 50.9608 31.9066 50.9079 31.9581 50.8547C32.5993 50.1786 33.252 49.5142 33.9048 48.8497C34.3581 48.3731 34.7109 47.8102 34.9423 47.1945C35.2001 46.5184 35.5838 45.8974 36.073 45.3644C36.3061 45.0962 36.5626 44.8515 36.9356 44.7582C37.2246 44.6859 37.2687 44.5927 37.3227 44.4784C37.3384 44.4452 37.3549 44.4103 37.3785 44.3735C37.763 43.7717 38.3312 43.3098 38.9988 43.0563C39.2786 42.9397 39.3835 42.7765 39.3602 42.4851C39.3465 42.2248 39.3504 41.9639 39.3719 41.7041C39.3878 41.4678 39.4869 41.2448 39.6516 41.0746C39.9547 40.7366 39.8614 40.3053 39.7565 39.9323C39.6906 39.698 39.5512 39.3856 39.4104 39.0701C39.327 38.8832 39.2431 38.6953 39.1737 38.5218C38.4393 36.6217 38.4626 34.78 39.6866 33.0897C40.3627 32.1572 41.3302 31.6443 42.4259 31.3645C42.5154 31.3496 42.6002 31.3252 42.6862 31.3003C42.7347 31.2863 42.7835 31.2722 42.8339 31.2596H45.3518L45.7481 31.3645C47.1236 31.7142 48.301 32.367 49.0587 33.6143C49.5366 34.3953 49.7931 35.2462 49.6065 36.1788C49.5722 36.3031 49.5627 36.4331 49.5787 36.5611C49.5947 36.6891 49.6359 36.8127 49.6998 36.9248C50.0556 37.4907 50.3824 38.0743 50.679 38.6733C50.9587 39.2795 50.8189 39.5359 50.1777 39.6758L50.0845 39.6991C49.7115 39.6991 49.6998 39.8274 49.7464 40.1887C49.748 40.2698 49.7679 40.3496 49.8047 40.4219C49.8515 40.5121 49.8619 40.6168 49.8337 40.7144C49.8055 40.812 49.7409 40.8951 49.6532 40.9464C49.5483 41.028 49.49 41.1213 49.5832 41.2495C49.6765 41.3777 49.6648 41.5875 49.49 41.7158C49.3947 41.7899 49.3223 41.8893 49.2811 42.0027C49.2398 42.1162 49.2314 42.2389 49.2568 42.3569C49.2802 42.4851 49.3035 42.6133 49.3151 42.7416C49.3618 43.3827 49.0354 43.779 48.3942 43.8606C48.1424 43.8966 47.8975 43.8632 47.6541 43.83C47.5821 43.8201 47.5103 43.8103 47.4384 43.8023C47.1236 43.7674 47.0537 43.8723 47.042 44.1404C47.0304 44.4085 47.1586 44.7582 47.5666 44.8981C48.0274 45.0547 48.5027 45.1313 48.9811 45.2083C49.1078 45.2287 49.2348 45.2491 49.3618 45.2711C49.9679 45.376 50.5391 45.5858 50.9121 46.1104C51.0753 46.3319 51.2618 46.3668 51.5183 46.3086C52.125 46.1856 52.7412 46.1154 53.36 46.0987C55.027 46.0754 56.6939 46.122 58.3608 46.1803C58.4677 46.1953 58.5766 46.1841 58.6782 46.1475C58.7797 46.1109 58.8709 46.0502 58.9437 45.9705C59.1311 45.7681 59.3611 45.6098 59.6171 45.507C59.8731 45.4042 60.1487 45.3594 60.4241 45.376C60.9535 45.3917 61.4828 45.3368 61.9977 45.2128C62.3708 45.1312 62.7205 45.0729 63.0702 45.2828C63.1851 45.3435 63.3131 45.3755 63.4432 45.376L63.4436 45.3761C64.038 45.4343 64.6323 45.4926 65.2383 45.5159C65.616 45.5345 65.9937 45.5569 66.3713 45.5793C66.9379 45.6129 67.5044 45.6464 68.0709 45.6674C68.43 45.6807 68.7486 45.7092 69.0505 45.7362C69.5424 45.7801 69.9899 45.8201 70.4956 45.784C71.3115 45.7257 72.384 45.6674 73.3282 45.6325C74.5575 45.5876 75.7885 45.6305 77.0117 45.7607C77.851 45.8423 78.702 45.9472 79.5063 46.227C79.821 46.3319 80.1124 46.4834 80.229 46.8331V49.4792C80.1008 49.9688 79.7394 50.2019 79.2731 50.3185L78.7486 50.4584C78.6318 50.5043 78.5036 50.5121 78.3822 50.4807C78.2607 50.4493 78.1523 50.3803 78.0725 50.2835C77.4547 49.6307 76.6853 49.2927 75.846 49.0363C75.5128 48.9338 75.2008 48.7719 74.9251 48.5583C74.6026 48.311 74.2205 48.3712 73.8612 48.4277C73.831 48.4325 73.801 48.4372 73.7711 48.4417C72.8735 48.5933 72.0459 48.9546 71.2416 49.3393C71.0144 49.448 70.7788 49.565 70.5375 49.6849C69.9245 49.9894 69.2745 50.3124 68.6305 50.5633C67.7715 50.8854 66.8661 51.0665 65.9494 51.0995L65.8812 51.1031L65.8808 51.1031L65.8804 51.1031C65.8797 51.1032 65.879 51.1032 65.8783 51.1032C65.8245 51.1061 65.7706 51.1089 65.7168 51.1117C64.9103 51.1541 64.1126 51.1948 63.315 51.2161C63.0119 51.2161 62.9303 51.356 62.9186 51.6124C62.9042 51.971 62.8495 52.3268 62.7554 52.6732C62.7314 52.8019 62.6639 52.9185 62.5641 53.0034C62.4644 53.0883 62.3385 53.1363 62.2076 53.1395C61.4019 53.2211 60.5906 53.2328 59.7829 53.1744L58.151 53.0345C57.8363 53.0112 57.5215 53.0112 57.2418 53.1628C55.9562 53.872 54.5547 54.202 53.1475 54.5333L53.1343 54.5364C53.0658 54.5526 52.9973 54.5687 52.9287 54.5849C52.6373 54.6548 52.3459 54.7364 52.0661 54.8297C51.4134 55.0395 51.2735 55.3426 51.5066 55.9954C51.6035 56.2576 51.6814 56.5263 51.7397 56.7997C51.9085 57.5341 51.8178 58.3043 51.4833 58.9795C51.2736 59.3902 51.2278 59.8652 51.3551 60.3084C51.7747 61.9287 51.8796 63.5723 51.833 65.2392C51.8274 65.4702 51.7836 65.6932 51.7399 65.9157L120.835 65.9157L119.091 62.7478C118.789 62.1996 118.371 61.724 117.866 61.3543L97.2831 46.2795C96.547 45.7403 95.6583 45.4497 94.7458 45.4497H92.3753C91.3065 45.4497 90.2762 45.0511 89.4856 44.332L83.0285 38.458C82.7009 38.16 82.3291 37.9145 81.9264 37.7301L80.3655 37.0155C78.9934 36.3873 78.0517 35.085 77.8851 33.5852L77.4975 30.0972C77.4428 29.6049 77.3033 29.1257 77.0853 28.6809L70.0581 14.3492C69.6276 13.4713 68.9104 12.7665 68.025 12.3515L66.7592 11.7582C66.2678 11.5278 65.8244 11.2064 65.4527 10.8109L57.6495 2.50862C57.1819 2.0111 56.6024 1.63225 55.9591 1.40351L52.7103 0.248395C50.9781 -0.367505 49.046 0.187608 47.9048 1.62904L44.5864 5.82071C44.0711 6.4716 43.7555 7.2579 43.6779 8.08443L43.2531 12.6054C43.1299 13.9163 42.4121 15.0983 41.3057 15.8121L38.5392 17.5969C38.2805 17.7639 38.004 17.9016 37.7149 18.0076C36.0742 18.6092 34.9834 20.171 34.9834 21.9185V22.4989C34.9834 23.2217 34.8009 23.9328 34.4529 24.5663L29.2871 33.9708C28.9732 34.5422 28.8086 35.1836 28.8086 35.8355C28.8086 37.1851 28.1061 38.4374 26.9544 39.1409L11.161 48.7874C10.5511 49.16 10.0438 49.6788 9.68514 50.2969Z" fill="white"/>
</svg>
